<?xml version="1.0" encoding="UTF-8" standalone="no"?>
<!-- Created with Inkscape (http://www.inkscape.org/) -->

<svg
   xmlns:dc="http://purl.org/dc/elements/1.1/"
   xmlns:cc="http://creativecommons.org/ns#"
   xmlns:rdf="http://www.w3.org/1999/02/22-rdf-syntax-ns#"
   xmlns:svg="http://www.w3.org/2000/svg"
   xmlns="http://www.w3.org/2000/svg"
   xmlns:sodipodi="http://sodipodi.sourceforge.net/DTD/sodipodi-0.dtd"
   xmlns:inkscape="http://www.inkscape.org/namespaces/inkscape"
   width="162.58759mm"
   height="102.20747mm"
   viewBox="0 0 162.58758 102.20747"
   version="1.1"
   id="svg8"
   sodipodi:docname="GearDiagram.svg"
   inkscape:version="0.92.3 (2405546, 2018-03-11)">
  <defs
     id="defs2">
    <marker
       inkscape:stockid="Arrow1Lend"
       orient="auto"
       refY="0"
       refX="0"
       id="Arrow1Lend"
       style="overflow:visible"
       inkscape:isstock="true">
      <path
         id="path995"
         d="M 0,0 5,-5 -12.5,0 5,5 Z"
         style="fill:#000000;fill-opacity:1;fill-rule:evenodd;stroke:#000000;stroke-width:1.00000003pt;stroke-opacity:1"
         transform="matrix(-0.8,0,0,-0.8,-10,0)"
         inkscape:connector-curvature="0" />
    </marker>
  </defs>
  <sodipodi:namedview
     id="base"
     pagecolor="#ffffff"
     bordercolor="#666666"
     borderopacity="1.0"
     inkscape:pageopacity="0.0"
     inkscape:pageshadow="2"
     inkscape:zoom="0.98994949"
     inkscape:cx="314.84442"
     inkscape:cy="200.62195"
     inkscape:document-units="mm"
     inkscape:current-layer="layer1"
     showgrid="false"
     inkscape:window-width="1600"
     inkscape:window-height="872"
     inkscape:window-x="1600"
     inkscape:window-y="0"
     inkscape:window-maximized="1"
     fit-margin-top="0"
     fit-margin-left="0"
     fit-margin-right="0"
     fit-margin-bottom="0" />
  <metadata
     id="metadata5">
    <rdf:RDF>
      <cc:Work
         rdf:about="">
        <dc:format>image/svg+xml</dc:format>
        <dc:type
           rdf:resource="http://purl.org/dc/dcmitype/StillImage" />
        <dc:title></dc:title>
      </cc:Work>
    </rdf:RDF>
  </metadata>
  <g
     inkscape:label="Layer 1"
     inkscape:groupmode="layer"
     id="layer1"
     transform="translate(-87.1038,-338.99297)">
    <path
       style="color:#000000;clip-rule:nonzero;display:inline;overflow:visible;visibility:visible;opacity:1;isolation:auto;mix-blend-mode:normal;color-interpolation:sRGB;color-interpolation-filters:linearRGB;solid-color:#000000;solid-opacity:1;fill:none;fill-opacity:1;fill-rule:evenodd;stroke:#ff0000;stroke-width:1.86112511;stroke-linecap:butt;stroke-linejoin:miter;stroke-miterlimit:4;stroke-dasharray:none;stroke-dashoffset:0;stroke-opacity:1;paint-order:fill markers stroke;color-rendering:auto;image-rendering:auto;shape-rendering:auto;text-rendering:auto;enable-background:accumulate"
       d="m 188.14448,387.12864 c -3.49657,2.85841 -6.37463,6.35396 -8.50841,10.25787 -2.04904,3.74866 -3.38921,7.87489 -3.95302,12.16952 a 140.52172,140.52172 0 0 0 -6.68003,0.19539 140.52172,140.52172 0 0 0 -37.07893,8.07457 c -2.2702,-3.77734 -5.28675,-7.18683 -9.0428,-9.97925 -3.85234,-2.86398 -8.10329,-4.81157 -12.49093,-5.88125 l -27.797692,16.43346 c -1.069822,4.38771 -1.263741,8.91266 -0.616127,13.3143 0.68294,4.6409 2.325291,9.1317 4.830022,13.19221 A 140.52172,140.52172 0 0 0 40.000783,560.91566 140.52172,140.52172 0 0 0 191.16054,689.92306 140.52172,140.52172 0 0 0 320.16759,538.75849 140.52172,140.52172 0 0 0 227.67665,417.7594 c 0.70462,-4.80599 0.44015,-9.83001 -1.01581,-14.79639 -1.3504,-4.6065 -3.56842,-8.72051 -6.42678,-12.21699 z"
       id="path815"
       inkscape:connector-curvature="0" />
    <path
       inkscape:connector-curvature="0"
       style="color:#000000;clip-rule:nonzero;display:inline;overflow:visible;visibility:visible;opacity:1;isolation:auto;mix-blend-mode:normal;color-interpolation:sRGB;color-interpolation-filters:linearRGB;solid-color:#000000;solid-opacity:1;fill:none;fill-opacity:1;fill-rule:evenodd;stroke:#003f67;stroke-width:1.86112511;stroke-linecap:butt;stroke-linejoin:miter;stroke-miterlimit:4;stroke-dasharray:none;stroke-dashoffset:0;stroke-opacity:1;paint-order:fill markers stroke;color-rendering:auto;image-rendering:auto;shape-rendering:auto;text-rendering:auto;enable-background:accumulate"
       d="m 64.075134,379.93129 c 4.523147,-0.61695 8.882255,-2.09413 12.844377,-4.30358 3.804802,-2.12168 7.225157,-4.93058 10.088221,-8.28442 a 137.72185,143.37851 53.835679 0 0 5.710553,3.29214 137.72185,143.37851 53.835679 0 0 35.588835,12.33935 c -0.19848,4.38174 0.43355,8.83756 2.02927,13.15238 1.63663,4.4254 4.11757,8.27923 7.20174,11.45841 l 32.45779,0.43921 c 3.33918,-3.17079 6.02022,-6.91176 7.92683,-10.98342 2.01026,-4.29315 3.13206,-8.95572 3.29184,-13.69926 A 137.72185,143.37851 53.835679 0 0 285.03341,309.09017 137.72185,143.37851 53.835679 0 0 230.06998,121.32842 137.72185,143.37851 53.835679 0 0 37.75046,182.87212 137.72185,143.37851 53.835679 0 0 47.970678,333.4658 c -3.265696,3.71498 -5.84006,8.11683 -7.383241,13.08639 -1.431316,4.60956 -1.861459,9.24998 -1.410024,13.6978 z"
       id="path815-5" />
    <path
       style="fill:none;fill-rule:evenodd;stroke:#000000;stroke-width:0.93056256;stroke-linecap:butt;stroke-linejoin:miter;stroke-miterlimit:4;stroke-dasharray:none;stroke-opacity:1;marker-end:url(#Arrow1Lend)"
       d="m 131.3489,370.00703 45.90234,26.74101"
       id="path988"
       inkscape:connector-curvature="0" />
    <path
       style="fill:none;fill-rule:evenodd;stroke:#000000;stroke-width:0.93056256;stroke-linecap:butt;stroke-linejoin:miter;stroke-miterlimit:4;stroke-dasharray:none;stroke-opacity:1"
       d="M 118.96422,409.98289 H 245.58719"
       id="path990"
       inkscape:connector-curvature="0" />
    <path
       style="fill:none;fill-rule:evenodd;stroke:#000000;stroke-width:0.93056256;stroke-linecap:butt;stroke-linejoin:miter;stroke-miterlimit:4;stroke-dasharray:none;stroke-opacity:1"
       d="m 144.58012,377.29249 c -14.50889,16.92712 -4.1768,32.64506 -4.1768,32.64506"
       id="path1256"
       inkscape:connector-curvature="0" />
    <text
       xml:space="preserve"
       style="font-style:normal;font-weight:normal;font-size:45.95944595px;line-height:125%;font-family:sans-serif;letter-spacing:0px;word-spacing:0px;fill:#000000;fill-opacity:1;stroke:none;stroke-width:2.46211314px;stroke-linecap:butt;stroke-linejoin:miter;stroke-opacity:1"
       x="140.60158"
       y="399.72559"
       id="text1260"><tspan
         sodipodi:role="line"
         id="tspan1258"
         x="140.60158"
         y="399.72559"
         style="font-size:16.4140892px;stroke-width:2.46211314px">α</tspan></text>
  </g>
</svg>
